<svg width="16" height="16" viewBox="0 0 16 16" fill="none" xmlns="http://www.w3.org/2000/svg">
<g clip-path="url(#clip0_211_746)">
<path d="M0.0836132 15.7987C0.126769 15.8608 0.184323 15.9116 0.251359 15.9467C0.318396 15.9817 0.392924 16.0001 0.468581 16.0001H15.5309C15.6847 16.0001 15.8285 15.9246 15.9159 15.7987C15.9592 15.7365 15.9867 15.6647 15.9961 15.5895C16.0055 15.5143 15.9965 15.438 15.9699 15.367C15.7873 14.8786 15.4458 14.4501 15.3071 14.289C15.2631 14.2376 15.2086 14.1964 15.1472 14.1681C15.0858 14.1398 15.019 14.1251 14.9514 14.1251H1.04811C0.911237 14.1251 0.781237 14.1851 0.692424 14.289C0.553737 14.4501 0.212238 14.8786 0.0295821 15.367C0.00295919 15.438 -0.006033 15.5143 0.00337877 15.5895C0.0127905 15.6647 0.0403246 15.7365 0.0836132 15.7987ZM1.87477 7.53135H4.71851V13.1876H1.87477V7.53135ZM6.59351 7.53135H9.406V13.1876H6.59351V7.53135ZM11.281 7.53135H14.1247V13.1876H11.281V7.53135ZM1.01436 6.45585C1.10236 6.5442 1.22483 6.59388 1.34595 6.59388L1.34617 6.59382C1.34624 6.59382 1.34633 6.59388 1.34639 6.59357H14.6531C14.6532 6.59388 14.6533 6.59382 14.6533 6.59382L14.6536 6.59388C14.7747 6.59388 14.8971 6.54423 14.9851 6.45585C15.0805 6.36048 15.7933 5.61813 15.9997 4.71889H-0.000230385C0.206175 5.61813 0.918955 6.36048 1.01436 6.45585ZM15.7014 3.78136L8.20941 0.0495517C8.1443 0.0170442 8.07253 0.00012207 7.99975 0.00012207C7.92698 0.00012207 7.85521 0.0170442 7.7901 0.0495517L0.298113 3.78136H15.7014Z" fill="#2D3C59"/>
</g>
<defs>
<clipPath id="clip0_211_746">
<rect width="16" height="16" fill="white"/>
</clipPath>
</defs>
</svg>
